<svg width="24" height="16" viewBox="0 0 24 16" fill="none" xmlns="http://www.w3.org/2000/svg">
<g clip-path="url(#clip0_401_1971)">
<path d="M0 0H24V16H0V0Z" fill="#009B3A"/>
<path d="M11.9999 0.902924L21.5859 7.98596L11.9999 15.0643L2.36719 7.98596L11.9999 0.902924Z" fill="#FEDF00"/>
<path d="M11.9999 11.7614C14.0773 11.7614 15.7613 10.0774 15.7613 8C15.7613 5.92263 14.0773 4.23859 11.9999 4.23859C9.92256 4.23859 8.23853 5.92263 8.23853 8C8.23853 10.0774 9.92256 11.7614 11.9999 11.7614Z" fill="white"/>
<path d="M10.1006 7.75204C9.45034 7.75204 8.81876 7.85029 8.22461 8.03274C8.25268 10.0865 9.92286 11.7427 11.9813 11.7427C13.2538 11.7427 14.3813 11.1064 15.0597 10.138C13.8948 8.68772 12.103 7.75204 10.1006 7.75204ZM15.6679 8.70175C15.71 8.46783 15.7381 8.22924 15.7381 7.98128C15.7381 5.90409 14.0538 4.21988 11.9767 4.21988C10.4281 4.21988 9.09946 5.16023 8.51935 6.49356C9.02929 6.39064 9.55326 6.3345 10.0913 6.3345C12.2807 6.33918 14.255 7.24678 15.6679 8.70175Z" fill="#002776"/>
</g>
<defs>
<clipPath id="clip0_401_1971">
<rect width="24" height="16" fill="white"/>
</clipPath>
</defs>
</svg>
