<svg width="24" height="16" viewBox="0 0 24 16" fill="none" xmlns="http://www.w3.org/2000/svg">
<g clip-path="url(#clip0_401_1977)">
<path d="M0 0.0112457H23.9532V16.0112H0V0.0112457Z" fill="white"/>
<path d="M0 0.0112457H23.9532V4.27791H0V0.0112457ZM0 11.7446H23.9532V16.0112H0V11.7446Z" fill="#D03433"/>
<path d="M0 4.26855H23.9532V11.7539H0V4.26855Z" fill="#FBCA46"/>
<path d="M8.30371 7.47791H9.3683V8.01124H8.30371V7.47791Z" fill="white"/>
<path d="M7.66512 9.07791C7.66512 9.39791 7.9845 9.61125 8.30387 9.61125C8.62325 9.61125 8.94262 9.39791 8.94262 9.07791L9.04908 7.47791H7.55866L7.66512 9.07791ZM7.02637 7.47791C7.02637 7.15791 7.23928 6.94458 7.4522 6.94458H9.04908C9.36846 6.94458 9.58138 7.15791 9.58138 7.37125V7.47791L9.47492 9.07791C9.36846 9.71791 8.94262 10.1446 8.30387 10.1446C7.66512 10.1446 7.23928 9.71791 7.13283 9.07791L7.02637 7.47791Z" fill="#A41517"/>
<path d="M7.23922 8.01124H9.36839V8.54457H8.8361L8.3038 9.61124L7.77151 8.54457H7.23922V8.01124ZM5.64233 6.41124H6.70692V10.1446H5.64233V6.41124ZM9.90068 6.41124H10.9653V10.1446H9.90068V6.41124ZM7.23922 5.87791C7.23922 5.55791 7.45213 5.34457 7.77151 5.34457H8.8361C9.15547 5.34457 9.36839 5.55791 9.36839 5.87791V6.09124C9.36839 6.30457 9.26193 6.41124 9.04901 6.41124H7.45213C7.34567 6.41124 7.23922 6.30457 7.23922 6.19791V5.87791Z" fill="#A41517"/>
</g>
<defs>
<clipPath id="clip0_401_1977">
<rect width="24" height="16" fill="white"/>
</clipPath>
</defs>
</svg>
