<svg width="24" height="16" viewBox="0 0 24 16" fill="none" xmlns="http://www.w3.org/2000/svg">
<g clip-path="url(#clip0_401_1974)">
<path d="M0 0H24V16H0V0Z" fill="white"/>
<path d="M0 0H24V1.23041H0V0ZM0 2.46082H24V3.69123H0V2.46082ZM0 4.92164H24V6.15205H0V4.92164ZM0 7.38246H24V8.61287H0V7.38246ZM0 9.84795H24V11.0784H0V9.84795ZM0 12.3088H24V13.5392H0V12.3088ZM0 14.7696H24V16H0V14.7696Z" fill="#D80027"/>
<path d="M0 0H12V8.61287H0V0Z" fill="#2E52B2"/>
<path d="M2.23636 6.49824L2.04922 5.89941L1.84337 6.49824H1.22583L1.72641 6.85847L1.53928 7.4573L2.04922 7.08771L2.54513 7.4573L2.35332 6.85847L2.86326 6.49824H2.23636ZM4.87027 6.49824L4.67846 5.89941L4.48197 6.49824H3.86443L4.36501 6.85847L4.17788 7.4573L4.67846 7.08771L5.18373 7.4573L4.99659 6.85847L5.49718 6.49824H4.87027ZM7.51355 6.49824L7.31238 5.89941L7.12525 6.49824H6.49367L7.00829 6.85847L6.8118 7.4573L7.31238 7.08771L7.827 7.4573L7.63051 6.85847L8.13109 6.49824H7.51355ZM10.1428 6.49824L9.95566 5.89941L9.75916 6.49824H9.13694L9.64221 6.85847L9.45507 7.4573L9.95566 7.08771L10.4609 7.4573L10.2597 6.85847L10.7744 6.49824H10.1428ZM4.67846 3.5228L4.48197 4.12163H3.86443L4.36501 4.49122L4.17788 5.08069L4.67846 4.71578L5.18373 5.08069L4.99659 4.49122L5.49718 4.12163H4.87027L4.67846 3.5228ZM2.04922 3.5228L1.84337 4.12163H1.22583L1.72641 4.49122L1.53928 5.08069L2.04922 4.71578L2.54513 5.08069L2.35332 4.49122L2.86326 4.12163H2.23636L2.04922 3.5228ZM7.31238 3.5228L7.12525 4.12163H6.49367L7.00829 4.49122L6.8118 5.08069L7.31238 4.71578L7.827 5.08069L7.63051 4.49122L8.13109 4.12163H7.51355L7.31238 3.5228ZM9.95566 3.5228L9.75916 4.12163H9.13694L9.64221 4.49122L9.45507 5.08069L9.95566 4.71578L10.4609 5.08069L10.2597 4.49122L10.7744 4.12163H10.1428L9.95566 3.5228ZM2.04922 1.15555L1.84337 1.74502H1.22583L1.72641 2.11461L1.53928 2.70876L2.04922 2.33917L2.54513 2.70876L2.35332 2.11461L2.86326 1.74502H2.23636L2.04922 1.15555ZM4.67846 1.15555L4.48197 1.74502H3.86443L4.36501 2.11461L4.17788 2.70876L4.67846 2.33917L5.18373 2.70876L4.99659 2.11461L5.49718 1.74502H4.87027L4.67846 1.15555ZM7.31238 1.15555L7.12525 1.74502H6.49367L7.00829 2.11461L6.8118 2.70876L7.31238 2.33917L7.827 2.70876L7.63051 2.11461L8.13109 1.74502H7.51355L7.31238 1.15555ZM9.95566 1.15555L9.75916 1.74502H9.13694L9.64221 2.11461L9.45507 2.70876L9.95566 2.33917L10.4609 2.70876L10.2597 2.11461L10.7744 1.74502H10.1428L9.95566 1.15555Z" fill="white"/>
</g>
<defs>
<clipPath id="clip0_401_1974">
<rect width="24" height="16" fill="white"/>
</clipPath>
</defs>
</svg>
